#!OML:ASF E:/inclinewalkrobotboard/Project1/Captureday1/Session1/subject1.ASF
:FULLY-SPECIFIED
:DEGREES
126
root 0 0 0 -1.916854137966713 -6.127925909583531 -7.320780820733434
lowerback 8.633073750474779 2.9834105272548697 5.764173341189951
upperback 0.035239564362803844 4.596330474884068 0.9631211898084399
thorax -4.65714749791883 2.157105274334594 -2.801226250215885
lowerneck -13.106388914420984 -3.4326152307124165 -1.659894196206886
upperneck 12.74735374692272 -4.873596181999309 3.4297373940862528
head 6.050913179815309 -2.2209085125095718 0.9261566274078685
rclavicle -3.508909941506526E-15 -1.5273869924674296E-15
rhumerus -30.776019063919875 -17.09981384990521 -84.15931551438496
rradius 20.805989359522464
rwrist 14.296388614997845
rhand -18.991203576257053 30.807323446204656
rfingers 7.125019999999999
rthumb 7.3268616764313075 0.7585058860798668
lclavicle -4.620969092493606E-15 -1.1482634721781838E-15
lhumerus -35.070760432832294 8.354354093061996 79.63983891410726
lradius 16.320912901750248
lwrist -1.6182247391262652
lhand -27.192436539121516 27.262723947007114
lfingers 7.125019999999987
lthumb -0.6532367542975965 57.33521499998291
rfemur -10.178526052843557 5.5631789876882465 28.720738904485152
rtibia 39.45971687630734
rfoot -9.57741872356629 -6.146855085092859
rtoes 5.147267838164736
lfemur -19.34208916715349 0.31682811453485815 -16.965372339194683
ltibia 38.22631667371367
lfoot -1.7465114915982571 -4.662542921489228
ltoes -3.401052924489491
127
root 0 0 0 -1.9870439504513642 -6.101416896622373 -7.230569223314319
lowerback 8.694394276523326 2.9889250508809146 5.640572293314057
upperback 0.06220425941250762 4.593207812521282 0.9590328158196262
thorax -4.663194627986337 2.1593681920081624 -2.734032278781131
lowerneck -13.015063909911335 -3.483598501565431 -1.682189829426191
upperneck 12.882144781577665 -4.950894821259245 3.508371029143021
head 6.090029266081527 -2.2529922514900127 0.9478944589593536
rclavicle -3.2809377440921817E-15 -1.5268964490199798E-15
rhumerus -30.753875622776576 -17.313881969891312 -83.97505257194175
rradius 20.673046347582442
rwrist 13.881225529033426
rhand -18.942859623908817 30.740547449449465
rfingers 7.125019999999999
rthumb 7.372477427679237 0.6981956935545526
lclavicle -4.405925755224702E-15 -1.1292396524984748E-15
lhumerus -35.05495925373566 8.256728042828852 79.58604400356734
lradius 16.501434276625815
lwrist -1.462636703675749
lhand -27.236589086142445 27.323884602535486
lfingers 7.125019999999988
lthumb -0.6946468050790058 57.401834853453494
rfemur -10.680885026820693 5.446836406718749 28.46457155914039
rtibia 39.88585612230807
rfoot -9.259953681026841 -6.1817852865381075
rtoes 5.189975335701105
lfemur -18.76832912283938 0.11305309047587775 -17.23999999911768
ltibia 37.77067427126035
lfoot -2.0341095547934476 -4.5467308258074155
ltoes -3.0272997920195515
128
root 0 0 0 -2.0243426884651052 -6.091629620643901 -7.172735297792553
lowerback 8.773008305482577 2.984208839782229 5.577569018982291
upperback 0.11964920423051886 4.5812901209533345 0.9620569930297339
thorax -4.645276470139207 2.1554330702221076 -2.6933032719999153
lowerneck -12.947576196475683 -3.5037747237412225 -1.6949651121508305
upperneck 12.98803478245625 -4.9775680095109625 3.533843330728736
head 6.115630357995083 -2.2647086288438807 0.9550957369051554
rclavicle -3.187843768942807E-15 -1.5720468110826753E-15
rhumerus -30.732418323306966 -17.362473395118894 -83.91281328359145
rradius 20.692263182348285
rwrist 13.74477462482789
rhand -18.94921523396603 30.738901837149605
rfingers 7.12502
rthumb 7.365773991700615 0.6962294686934385
lclavicle -4.320414871728826E-15 -1.1722488846447734E-15
lhumerus -35.0295263050757 8.19144814361876 79.5749962205912
lradius 16.597582624999127
lwrist -1.3768657194749934
lhand -27.260542777324773 27.362433110627475
lfingers 7.125019999999989
lthumb -0.7175780662409093 57.44252196566204
rfemur -11.022254730167202 5.376434434638404 28.346874491082602
rtibia 40.26814401417651
rfoot -9.054817251112453 -6.210475894736852
rtoes 5.256001286067882
lfemur -18.44187895503621 -0.0258775158377178 -17.393303247604337
ltibia 37.48742973053197
lfoot -2.20818782653793 -4.46176005643124
ltoes -2.803055176496901
129
root 0 0 0 -2.0617626068785784 -6.085374370195664 -7.116091009020255
lowerback 8.854775140797692 2.975487790920583 5.522163883667075
upperback 0.18249057824576465 4.564656198055904 0.9670944733115268
thorax -4.623235480891617 2.1489027730042523 -2.6541919398224763
lowerneck -12.892253843499317 -3.518533011721095 -1.7075412127260239
upperneck 13.086490600101762 -4.994384474931775 3.546726864305482
head 6.1388996786507875 -2.2726868257986026 0.9587963024602719
rclavicle -3.0983932717887303E-15 -1.571010536391669E-15
rhumerus -30.69089859111569 -17.42082095350421 -83.84137224508706
rradius 20.768097343173757
rwrist 13.642052105807728
rhand -18.97288064541035 30.736560402559114
rfingers 7.125020000000001
rthumb 7.342693160940514 0.6909986581563743
lclavicle -4.242484685554368E-15 -1.1903780592550812E-15
lhumerus -35.00339623409163 8.126404642082576 79.56971320839169
lradius 16.689847155449385
lwrist -1.2943930152697907
lhand -27.282349048577053 27.399188108102962
lfingers 7.1250199999999895
lthumb -0.7381876541621057 57.48102544152522
rfemur -11.347623347280798 5.321139879823057 28.24907467224113
rtibia 40.5713564347714
rfoot -8.90004150433736 -6.250309686906588
rtoes 5.28942957667264
lfemur -18.118755780644307 -0.18416289835889366 -17.53738458455008
ltibia 37.1749020954434
lfoot -2.408017910135408 -4.346687330236199
ltoes -2.607248296253818
